HIERARCHY
ROOT Hips
{
	OFFSET 0.000000 0.000000 0.000000 
	CHANNELS 6 Xposition Yposition Zposition Zrotation Yrotation Xrotation
	JOINT LHipJoint
	{
		OFFSET 0.000000 0.000000 0.000000 
		CHANNELS 3 Zrotation Yrotation Xrotation
		JOINT LeftUpLeg
		{
			OFFSET 1.550200 -1.879410 0.798960 
			CHANNELS 3 Zrotation Yrotation Xrotation
			JOINT LeftLeg
			{
				OFFSET 2.652690 -7.288220 0.000000 
				CHANNELS 3 Zrotation Yrotation Xrotation
				JOINT LeftFoot
				{
					OFFSET 2.612000 -7.176410 0.000000 
					CHANNELS 3 Zrotation Yrotation Xrotation
					JOINT LeftToeBase
					{
						OFFSET 0.093380 -0.256560 1.924610 
						CHANNELS 3 Zrotation Yrotation Xrotation
						End Site
						{
							OFFSET 0.000000 -0.000000 0.984800 
						}
					}
				}
			}
		}
	}
	JOINT RHipJoint
	{
		OFFSET 0.000000 0.000000 0.000000 
		CHANNELS 3 Zrotation Yrotation Xrotation
		JOINT RightUpLeg
		{
			OFFSET -1.568660 -1.879410 0.798950 
			CHANNELS 3 Zrotation Yrotation Xrotation
			JOINT RightLeg
			{
				OFFSET -2.601990 -7.148920 0.000000 
				CHANNELS 3 Zrotation Yrotation Xrotation
				JOINT RightFoot
				{
					OFFSET -2.628410 -7.221510 0.000000 
					CHANNELS 3 Zrotation Yrotation Xrotation
					JOINT RightToeBase
					{
						OFFSET -0.195320 -0.536630 1.931320 
						CHANNELS 3 Zrotation Yrotation Xrotation
						End Site
						{
							OFFSET -0.000000 -0.000000 1.008960 
						}
					}
				}
			}
		}
	}
	JOINT LowerBack
	{
		OFFSET 0.000000 0.000000 0.000000 
		CHANNELS 3 Zrotation Yrotation Xrotation
		JOINT Spine
		{
			OFFSET 0.063810 2.078060 -0.221120 
			CHANNELS 3 Zrotation Yrotation Xrotation
			JOINT Spine1
			{
				OFFSET -0.028810 2.088900 0.018250 
				CHANNELS 3 Zrotation Yrotation Xrotation
				JOINT Neck
				{
					OFFSET 0.000000 0.000000 0.000000 
					CHANNELS 3 Zrotation Yrotation Xrotation
					JOINT Neck1
					{
						OFFSET 0.024180 1.743250 -0.020230 
						CHANNELS 3 Zrotation Yrotation Xrotation
						JOINT Head
						{
							OFFSET -0.017040 1.716770 0.040900 
							CHANNELS 3 Zrotation Yrotation Xrotation
							End Site
							{
								OFFSET -0.009460 1.782380 0.016840 
							}
						}
					}
				}
				JOINT LeftShoulder
				{
					OFFSET 0.000000 0.000000 0.000000 
					CHANNELS 3 Zrotation Yrotation Xrotation
					JOINT LeftArm
					{
						OFFSET 3.397830 1.341570 0.166100 
						CHANNELS 3 Zrotation Yrotation Xrotation
						JOINT LeftForeArm
						{
							OFFSET 5.152180 -0.000000 0.000000 
							CHANNELS 3 Zrotation Yrotation Xrotation
							JOINT LeftHand
							{
								OFFSET 3.494590 -0.000000 0.000000 
								CHANNELS 3 Zrotation Yrotation Xrotation
								JOINT LeftFingerBase
								{
									OFFSET 0.000000 0.000000 0.000000 
									CHANNELS 3 Zrotation Yrotation Xrotation
									JOINT LeftHandIndex1
									{
										OFFSET 0.512470 -0.000000 0.000000 
										CHANNELS 3 Zrotation Yrotation Xrotation
										End Site
										{
											OFFSET 0.413160 -0.000000 0.000000 
										}
									}
								}
								JOINT LThumb
								{
									OFFSET 0.000000 0.000000 0.000000 
									CHANNELS 3 Zrotation Yrotation Xrotation
									End Site
									{
										OFFSET 0.419470 -0.000000 0.419470 
									}
								}
							}
						}
					}
				}
				JOINT RightShoulder
				{
					OFFSET 0.000000 0.000000 0.000000 
					CHANNELS 3 Zrotation Yrotation Xrotation
					JOINT RightArm
					{
						OFFSET -3.262240 1.055090 0.011880 
						CHANNELS 3 Zrotation Yrotation Xrotation
						JOINT RightForeArm
						{
							OFFSET -5.443440 -0.000000 0.000000 
							CHANNELS 3 Zrotation Yrotation Xrotation
							JOINT RightHand
							{
								OFFSET -3.584030 -0.000000 0.000000 
								CHANNELS 3 Zrotation Yrotation Xrotation
								JOINT RightFingerBase
								{
									OFFSET 0.000000 0.000000 0.000000 
									CHANNELS 3 Zrotation Yrotation Xrotation
									JOINT RightHandIndex1
									{
										OFFSET -0.342490 -0.000000 0.000000 
										CHANNELS 3 Zrotation Yrotation Xrotation
										End Site
										{
											OFFSET -0.276120 -0.000000 0.000000 
										}
									}
								}
								JOINT RThumb
								{
									OFFSET 0.000000 0.000000 0.000000 
									CHANNELS 3 Zrotation Yrotation Xrotation
									End Site
									{
										OFFSET -0.280340 -0.000000 0.280340 
									}
								}
							}
						}
					}
				}
			}
		}
	}
}
MOTION
Frames: 10
Frame Time: 0.008333
-11.886811 17.676302 3.029406 -162.792007 -74.495796 166.263000 0.000000 0.000000 0.000000 -19.478800 -5.292600 -22.967600 4.756000 13.103600 39.757401 0.349600 -6.882800 -10.870700 0.679900 -5.272000 -14.686000 0.000000 0.000000 0.000000 13.704300 30.049900 -46.141102 -8.991100 -16.802000 56.059399 -0.546300 -0.561700 -14.177300 -1.030200 6.456300 -18.114100 -6.495300 -1.607100 28.696899 -5.258300 -5.376500 8.429300 -0.294300 -2.978600 -6.288900 2.743500 2.341200 -0.236700 -1.255600 2.677900 -16.274300 -0.933400 1.022300 -4.784100 -0.000000 -0.000000 0.000000 -56.060299 -32.329800 17.162500 61.897900 -56.794800 -35.924702 -0.000000 -0.000000 15.941700 29.356400 8.005900 4.479300 -7.125000 0.000000 -0.000000 2.181500 39.137699 -0.315300 -0.000000 -0.000000 0.000000 80.240402 -10.320100 44.783001 -35.284199 45.014000 -15.014000 0.000000 0.000000 17.987801 -39.916500 -27.122200 20.877199 7.125000 -0.000000 -0.000000 -12.611100 -63.286598 5.641800 
-11.897833 17.735500 3.030418 -163.016006 -74.147499 166.684998 0.000000 0.000000 0.000000 -19.496799 -5.448200 -22.605200 4.577400 12.891500 38.963600 0.371700 -6.016900 -11.007600 0.517300 -4.609900 -12.799100 0.000000 0.000000 0.000000 13.541600 30.417999 -46.675800 -10.791900 -17.831800 62.104000 -0.620700 -1.450300 -15.476300 -0.877600 5.972300 -16.704000 -6.605800 -1.587000 28.476900 -5.172600 -5.343000 8.281600 -0.154700 -2.951300 -6.331000 1.694300 1.101300 -0.223700 -1.106400 0.946800 -15.947800 -0.643700 0.223100 -4.726600 0.000000 -0.000000 0.000000 -58.723999 -29.235300 18.549801 57.431599 -55.585800 -32.212898 -0.000000 -0.000000 16.414101 29.005199 8.669700 4.777300 -7.125000 0.000000 -0.000000 1.848700 39.863201 -0.234200 0.000000 -0.000000 0.000000 80.313698 -7.566900 46.852001 -37.407398 46.456600 -16.534700 0.000000 0.000000 18.143101 -39.859901 -27.333500 20.975800 7.125000 -0.000000 -0.000000 -12.522200 -63.512299 5.667600 
-11.903754 17.810602 3.030630 -161.505005 -73.779503 165.488007 0.000000 0.000000 0.000000 -19.013100 -5.634100 -22.235901 4.364000 12.629700 37.997601 0.386600 -4.966000 -11.092400 0.501600 -4.540100 -12.601400 0.000000 0.000000 0.000000 13.880000 30.752300 -46.791302 -12.682800 -18.664600 68.137299 -0.716300 -1.549000 -16.620501 -0.708800 5.380800 -14.997900 -6.302900 -1.598600 28.350401 -4.936300 -5.221000 8.134800 -0.104500 -2.877100 -6.441500 0.481000 -0.266400 -0.756400 -0.433800 -0.878300 -14.653500 -0.181300 -0.644200 -4.721300 -0.000000 0.000000 0.000000 -61.334599 -26.187401 19.917601 52.389500 -53.914902 -28.094000 -0.000000 -0.000000 16.832800 28.118601 9.580500 5.082300 -7.125000 0.000000 -0.000000 1.017200 40.811699 -0.105100 -0.000000 0.000000 0.000000 80.515297 -4.589600 48.812000 -39.343399 47.675999 -17.952200 0.000000 0.000000 19.165001 -39.467602 -27.704000 20.946699 7.125000 -0.000000 -0.000000 -11.943600 -63.820999 5.488100 
-11.905477 17.897602 3.030642 -159.046997 -73.269402 163.395004 0.000000 0.000000 0.000000 -18.202299 -5.646000 -21.921400 4.146700 12.353100 36.992901 0.400200 -3.788400 -11.253300 0.604100 -4.975400 -13.838300 0.000000 0.000000 0.000000 14.699700 31.058701 -46.649399 -14.549100 -19.272200 73.874496 -0.756200 -2.024700 -17.279600 -0.905600 6.064400 -16.971399 -5.613600 -1.573300 28.113100 -4.704500 -4.941600 8.173900 -0.338900 -2.746300 -6.327400 -0.748400 -1.771100 -1.607400 0.591300 -2.829400 -13.569400 0.428700 -1.593700 -4.131600 0.000000 0.000000 0.000000 -63.677601 -23.541401 21.211399 47.051300 -51.734699 -23.838699 -0.000000 -0.000000 16.870199 27.868999 10.823700 5.670800 -7.125000 0.000000 -0.000000 0.706200 42.182301 -0.049100 0.000000 0.000000 0.000000 81.035004 -1.152600 50.437698 -40.995899 48.648998 -19.183500 0.000000 0.000000 20.830799 -38.918900 -27.754900 20.607100 7.125000 -0.000000 -0.000000 -11.162700 -63.718498 5.097900 
-11.908798 17.985302 3.036354 -157.539001 -72.919899 162.313004 0.000000 0.000000 0.000000 -17.762400 -5.652800 -21.768200 3.945600 12.087600 36.042599 0.402200 -2.582900 -11.367400 0.705400 -5.368100 -14.961400 0.000000 0.000000 0.000000 15.192500 31.025499 -46.516201 -16.399799 -19.686399 79.420799 -0.825000 -2.073600 -18.027000 -0.802000 5.715800 -15.962000 -5.226400 -1.561300 27.841600 -4.507600 -4.763900 8.133400 -0.408400 -2.657100 -6.258400 -2.124500 -3.240000 -2.011000 1.871300 -4.683900 -12.574800 1.108900 -2.498900 -3.621800 -0.000000 -0.000000 0.000000 -65.969398 -20.992300 22.220100 41.598801 -48.989101 -19.637199 -0.000000 -0.000000 16.552099 27.978399 11.640100 6.117700 -7.125000 0.000000 -0.000000 0.738200 43.108799 -0.034500 -0.000000 -0.000000 0.000000 81.490196 2.315000 52.174999 -42.593800 49.533699 -20.391199 0.000000 0.000000 22.298599 -38.559502 -27.558800 20.243999 7.125000 -0.000000 -0.000000 -10.679500 -63.391300 4.792900 
-11.910820 18.057104 3.046166 -156.503998 -72.606201 161.873993 0.000000 0.000000 0.000000 -17.453800 -5.726100 -21.965799 3.779200 11.860600 35.240601 0.393300 -1.498300 -11.419200 0.660400 -5.197600 -14.472900 0.000000 0.000000 0.000000 15.443600 30.777201 -46.395699 -18.189199 -19.921200 84.698799 -0.978500 -1.083000 -19.111799 -0.512500 4.588700 -12.739000 -5.189100 -1.641200 27.576200 -4.315500 -4.788100 7.817700 -0.213400 -2.640200 -6.466700 -2.632800 -4.491500 -1.290000 2.305500 -6.338600 -12.155100 1.383400 -3.310300 -3.543500 -0.000000 -0.000000 0.000000 -68.057701 -18.319700 22.649500 36.191399 -45.644299 -15.659200 -0.000000 -0.000000 16.173901 27.808599 12.146800 6.332800 -7.125000 0.000000 -0.000000 0.537100 43.655701 -0.017800 -0.000000 -0.000000 0.000000 81.902702 5.569500 54.519600 -44.262199 50.401901 -21.668699 0.000000 0.000000 22.891399 -38.527500 -27.250799 20.030800 7.125000 -0.000000 -0.000000 -10.666800 -63.031799 4.697200 
-11.905842 18.117203 3.060178 -155.436996 -72.110802 161.591003 0.000000 0.000000 0.000000 -17.061800 -5.561300 -22.599701 3.657600 11.690300 34.644901 0.387000 -0.534500 -11.576000 0.571300 -4.840700 -13.454600 0.000000 0.000000 0.000000 15.654300 30.644400 -46.301800 -19.867201 -19.999599 89.611702 -0.972900 -0.712600 -18.910801 -0.845600 5.865200 -16.393900 -4.982200 -1.561200 27.212999 -4.031200 -4.547100 7.535900 -0.102500 -2.501000 -6.599700 -3.505000 -5.760500 -1.099800 3.058500 -7.977700 -11.393300 1.785100 -4.113900 -3.204500 0.000000 0.000000 0.000000 -70.618797 -14.910600 23.119301 32.317402 -42.798801 -12.956000 -0.000000 -0.000000 15.860400 27.585699 12.360800 6.381600 -7.125000 0.000000 -0.000000 0.311500 43.867599 -0.008700 0.000000 0.000000 0.000000 82.283897 9.047500 56.356701 -46.043701 51.269699 -23.050100 0.000000 0.000000 22.772600 -38.434200 -27.064400 19.852800 7.125000 -0.000000 -0.000000 -10.557300 -62.792801 4.589100 
-11.900763 18.159904 3.076990 -154.091995 -71.566299 161.013000 0.000000 0.000000 0.000000 -16.598900 -5.159300 -23.392000 3.586600 11.589000 34.293201 0.396800 0.151700 -11.955800 0.446300 -4.286400 -11.883800 0.000000 0.000000 0.000000 15.982900 30.483900 -45.923302 -21.387800 -19.953800 94.060600 -0.991000 0.057100 -18.804501 -0.962800 6.247600 -17.504601 -4.548500 -1.479100 26.815100 -3.778000 -4.248700 7.321400 -0.174900 -2.342100 -6.660200 -4.437500 -6.884600 -0.945700 4.042800 -9.392900 -10.460000 2.242400 -4.811400 -2.773500 -0.000000 -0.000000 0.000000 -72.837997 -12.065800 23.308001 28.434799 -39.513401 -10.399200 -0.000000 -0.000000 15.557100 27.093800 12.286000 6.212900 -7.125000 0.000000 -0.000000 -0.132900 43.725700 0.004200 -0.000000 -0.000000 0.000000 82.807899 12.689100 57.985001 -47.853802 52.092300 -24.470301 0.000000 0.000000 22.297701 -38.154701 -27.242399 19.780300 7.125000 -0.000000 -0.000000 -10.156500 -62.915401 4.442200 
-11.898884 18.174004 3.094402 -152.645004 -71.115097 160.287003 0.000000 0.000000 0.000000 -16.077801 -5.022900 -24.118500 3.560800 11.551800 34.164299 0.435400 0.428600 -12.626900 0.253100 -3.237200 -8.939800 0.000000 0.000000 0.000000 16.309900 30.136999 -45.164101 -22.731300 -19.820200 98.008904 -0.999800 1.056800 -18.575600 -0.990000 6.332700 -17.752899 -3.962200 -1.407000 26.368900 -3.539300 -3.927800 7.191700 -0.360000 -2.180500 -6.610500 -5.366800 -7.898900 -0.742200 5.092100 -10.665500 -9.523100 2.706500 -5.441000 -2.332200 0.000000 0.000000 0.000000 -74.860901 -9.495700 23.188700 24.879000 -36.080101 -8.218600 -0.000000 -0.000000 15.628400 25.501900 11.792300 5.567900 -7.125000 0.000000 -0.000000 -1.530200 42.998402 0.075600 0.000000 0.000000 0.000000 83.280296 16.503401 59.289501 -49.906300 52.957699 -26.099400 0.000000 0.000000 21.632601 -38.221699 -27.558100 20.019400 7.125000 -0.000000 -0.000000 -10.211700 -63.293098 4.557100 
-11.898305 18.159307 3.113214 -151.516006 -70.846901 159.772003 0.000000 0.000000 0.000000 -15.613700 -5.318500 -24.681200 3.586900 11.589400 34.294601 0.494000 0.262200 -13.377000 0.190600 -2.811400 -7.754200 0.000000 0.000000 0.000000 16.467699 29.503000 -44.057301 -23.908400 -19.629801 101.495399 -1.006400 1.887100 -18.421000 -1.117400 6.715200 -18.874300 -3.473900 -1.314400 26.010099 -3.286800 -3.619200 7.103700 -0.467100 -2.027200 -6.545800 -5.905900 -8.796100 -0.523800 5.607000 -11.827000 -8.657000 2.925600 -6.013400 -1.956700 -0.000000 -0.000000 0.000000 -76.930801 -6.822800 22.593000 21.845301 -32.801701 -6.501800 -0.000000 -0.000000 15.899100 25.921101 11.288600 5.434800 -7.125000 0.000000 -0.000000 -1.094200 42.490601 0.067800 -0.000000 -0.000000 0.000000 83.534302 20.384600 60.157101 -52.347000 53.899300 -28.059601 0.000000 0.000000 21.140499 -38.673901 -27.266500 20.137400 7.125000 -0.000000 -0.000000 -10.867100 -63.091801 4.801800 
